<svg preserveAspectRatio="none" viewBox="0 0 121 122" fill="none" xmlns="http://www.w3.org/2000/svg">
<path fill-rule="evenodd" clip-rule="evenodd" d="M62.7847 0.0255302C75.8903 -0.382079 89.1573 4.10061 98.9685 12.7937C108.292 21.0543 110.69 33.9181 114.439 45.793C118.151 57.5504 122.306 69.1315 120.609 81.3432C118.656 95.4095 116.458 112.353 104.197 119.53C91.9196 126.717 76.9887 116.015 62.7847 115.19C49.8026 114.436 36.2679 120.906 24.7282 114.915C12.5161 108.574 2.99696 96.3264 0.429642 82.8143C-2.02736 69.8828 6.63718 58.1356 11.6256 45.9537C16.1725 34.8498 19.2702 23.0124 28.201 14.9947C37.7811 6.3942 49.9132 0.425862 62.7847 0.0255302Z" fill="#F2F9FF"/>
</svg>
